<mxfile host="app.diagrams.net" modified="2024-07-24T14:20:32.328Z" agent="Mozilla/5.0 (Macintosh; Intel Mac OS X 10_15_7) AppleWebKit/537.36 (KHTML, like Gecko) Chrome/126.0.0.0 Safari/537.36" version="24.7.1" etag="ety5frS6oGqqp2xw8LX7" type="github">
  <diagram name="Page-1" id="V5RtSK7rz0SFKQk2C7o1">
    <mxGraphModel>
      <root>
        <mxCell id="0" />
        <mxCell id="1" parent="0" />
      </root>
    </mxGraphModel>
  </diagram>
</mxfile>
